<?xml version="1.0" encoding="UTF-8"?>
<svg width="2006px" height="243px" viewBox="0 0 2006 243" version="1.1" xmlns="http://www.w3.org/2000/svg" xmlns:xlink="http://www.w3.org/1999/xlink">
    <title>JET-Logo-White-Primary-Hor-RGB</title>
    <g id="Page-1" stroke="none" stroke-width="1" fill="none" fill-rule="evenodd">
        <g id="JET-Logo-White-Primary-Hor-RGB" transform="translate(0.729119, 0.709944)" fill="#FFFFFF" fill-rule="nonzero">
            <g id="TakeawayCOM-2" transform="translate(1025.030881, 77.260056)">
                <path d="M92.24,27.13 L92.24,11.44 C92.1084156,9.52198943 90.5511632,8.01218788 88.63,7.94 L3.63,7.94 C1.64735038,7.99247836 0.0524783638,9.58735038 -2.27373675e-13,11.57 L-2.27373675e-13,27.03 C0.060095946,28.9991007 1.62242671,30.5918948 3.59,30.69 L31.4,30.69 C32.4083522,30.7266511 33.2142518,31.5413105 33.24,32.55 L33.24,120.84 C33.2379319,122.840937 34.8111302,124.489049 36.81,124.58 L55.38,124.58 C57.318568,124.492436 58.8641619,122.929427 58.93,120.99 L58.93,32.09 C59.1417668,31.2721195 59.8657006,30.6905322 60.71,30.66 L88.65,30.66 C90.5643724,30.5620389 92.1004754,29.0431472 92.22,27.13" id="Path"></path>
                <path d="M139.59,48.46 C136.649318,44.8246488 132.773932,42.0589853 128.38,40.46 C122.639075,38.4710523 116.582704,37.5492095 110.51,37.74 C104.001124,37.7225883 97.5363294,38.8079434 91.39,40.95 C86.5355128,42.6171658 82.0006084,45.099358 77.98,48.29 C76.6225074,49.7725444 76.6754378,52.0617806 78.1,53.48 L78.1,53.48 L85.81,61.38 L85.81,61.38 C86.5152405,62.0859192 87.4721593,62.4825576 88.47,62.4825576 C89.4678407,62.4825576 90.4247595,62.0859192 91.13,61.38 L91.13,61.38 C93.0241243,59.6949861 95.1241945,58.256858 97.38,57.1 C100.834488,55.3871554 104.644356,54.5134898 108.5,54.55 C112.551746,54.4886308 116.494488,55.8630999 119.63,58.43 C122.54,60.84 124.1,65.14 124.31,72.05 C124.16037,72.9655417 123.377536,73.6431564 122.45,73.66 L122.45,73.66 C119.56,73.66 116.45,73.66 113.21,73.83 C109.194487,73.9393881 105.188232,74.2732426 101.21,74.83 C97.2813319,75.3682511 93.402208,76.2209895 89.61,77.38 C86.035445,78.4476982 82.6581106,80.0890828 79.61,82.24 C76.7184053,84.3041947 74.3460186,87.0120704 72.68,90.15 C70.8827985,93.7816652 70.0070427,97.7998386 70.13,101.85 C70.0385929,105.549574 70.8304829,109.217635 72.44,112.55 C73.9220052,115.562564 76.057154,118.206732 78.69,120.29 C81.4146923,122.430308 84.5240097,124.029095 87.85,125 C91.3174411,126.041912 94.91941,126.567551 98.54,126.560768 C103.484747,126.591721 108.386448,125.639934 112.96,123.76 C116.503315,122.318188 119.631049,120.015351 122.06,117.06 L122.31,117.06 C122.82731,116.816935 123.441163,116.920572 123.85,117.32 C124.101993,117.561057 124.24923,117.891442 124.26,118.24 L124.26,121.13 C124.321089,123.082518 125.878284,124.65716 127.83,124.74 L143.41,124.74 C145.378885,124.660865 146.944511,123.060155 146.98,121.09 L146.98,84.03 C147.040578,76.5043188 146.488758,68.9861837 145.33,61.55 C144.40351,56.8756359 142.404353,52.480227 139.49,48.71 M124.37,94.71 C124.419289,97.0048316 123.878707,99.273902 122.8,101.3 C121.754606,103.15059 120.292675,104.732351 118.53,105.92 C116.685012,107.149971 114.661169,108.087686 112.53,108.7 C110.258839,109.377123 107.899909,109.714113 105.53,109.7 C102.740903,109.699516 100.001572,108.961207 97.59,107.56 C95.1516489,106.291942 93.680959,103.714324 93.83,100.97 C93.7048683,98.5283258 94.7031167,96.1634716 96.54,94.55 C98.4733436,92.9504709 100.717192,91.7689606 103.13,91.08 C105.758728,90.3127569 108.466065,89.8464375 111.2,89.69 C114.046667,89.5233333 116.38,89.44 118.2,89.44 L122.48,89.44 C123.462689,89.51144 124.231803,90.3151207 124.26,91.3 L124.37,94.71 Z" id="Shape"></path>
                <path d="M385.61,48.46 C382.67865,44.8235092 378.809284,42.0572064 374.42,40.46 C368.67543,38.4718175 362.615925,37.5500136 356.54,37.74 C350.028257,37.7274073 343.560978,38.812612 337.41,40.95 C332.558227,42.6094641 328.02864,45.0924493 324.02,48.29 C322.649337,49.765931 322.698033,52.0634697 324.13,53.48 L324.13,53.48 L331.83,61.38 L331.83,61.38 C333.311204,62.8480558 335.698796,62.8480558 337.18,61.38 C339.070423,59.6949213 341.167197,58.2567488 343.42,57.1 C346.883034,55.381108 350.704076,54.5072374 354.57,54.55 C358.613735,54.4818109 362.549319,55.8574924 365.67,58.43 C368.58,60.84 370.14,65.14 370.36,72.05 C370.21037,72.9655417 369.427536,73.6431564 368.5,73.66 L368.5,73.66 C365.61,73.66 362.5,73.66 359.25,73.83 C355.234468,73.9390542 351.228195,74.2729103 347.25,74.83 C343.313249,75.3596621 339.426788,76.2125429 335.63,77.38 C332.055445,78.4476982 328.678111,80.0890828 325.63,82.24 C322.749119,84.3102977 320.38451,87.0171078 318.72,90.15 C316.910285,93.7775951 316.030581,97.7981157 316.16,101.85 C316.079628,105.548525 316.870968,109.214038 318.47,112.55 C319.94855,115.561925 322.080309,118.206127 324.71,120.29 C327.435892,122.428437 330.544834,124.02703 333.87,125 C342.16848,127.448706 351.052011,127.01158 359.07,123.76 C362.612405,122.321589 365.737671,120.018037 368.16,117.06 L368.4,117.06 C368.924232,116.81943 369.542127,116.922413 369.96,117.32 C370.195645,117.570285 370.33398,117.896613 370.35,118.24 L370.35,121.13 C370.411089,123.082518 371.968284,124.65716 373.92,124.74 L389.49,124.74 C391.462804,124.666026 393.034238,123.063867 393.07,121.09 L393.07,84.03 C393.127406,76.5051763 392.582331,68.9878321 391.44,61.55 C390.506518,56.874222 388.500556,52.4789047 385.58,48.71 M370.37,94.71 C370.427787,97.0045215 369.890338,99.2748982 368.81,101.3 C367.769375,103.157243 366.302437,104.740713 364.53,105.92 C362.684465,107.148995 360.660778,108.086637 358.53,108.7 C356.258839,109.377123 353.899909,109.714113 351.53,109.7 C348.747435,109.697888 346.014969,108.95957 343.61,107.56 C341.163885,106.297619 339.684691,103.718812 339.83,100.97 C339.698301,98.5250836 340.701961,96.1561489 342.55,94.55 C344.479748,92.9507152 346.720289,91.7691532 349.13,91.08 C351.765727,90.3135312 354.479598,89.8472419 357.22,89.69 C360.07,89.52 362.41,89.44 364.22,89.44 L368.5,89.44 C369.485224,89.5025851 370.256316,90.3128853 370.27,91.3 L370.37,94.71 Z" id="Shape"></path>
                <path d="M597.94,48.46 C594.999318,44.8246488 591.123932,42.0589853 586.73,40.46 C580.989075,38.4710523 574.932704,37.5492095 568.86,37.74 C562.358057,37.727533 555.900661,38.8127813 549.76,40.95 C544.893541,42.6108165 540.347733,45.0934229 536.32,48.29 C534.970381,49.7771165 535.027621,52.062317 536.45,53.48 L536.45,53.48 L544.15,61.38 L544.15,61.38 C545.631204,62.8480558 548.018796,62.8480558 549.5,61.38 C551.400993,59.6944348 553.507745,58.2563333 555.77,57.1 C559.225967,55.3813068 563.040492,54.507359 566.9,54.55 C570.942605,54.4888087 574.875844,55.8636705 578,58.43 C580.91,60.84 582.45,65.14 582.68,72.05 C582.540784,72.9794442 581.739797,73.6653958 580.8,73.66 L580.8,73.66 C577.93,73.66 574.8,73.66 571.58,73.83 C567.564446,73.9386563 563.558151,74.2725143 559.58,74.83 C555.644765,75.3682159 551.758993,76.2209456 547.96,77.38 C544.385445,78.4476982 541.008111,80.0890828 537.96,82.24 C535.071721,84.3021492 532.705441,87.0108712 531.05,90.15 C529.240285,93.7775951 528.360581,97.7981157 528.49,101.85 C528.404717,105.548994 529.196301,109.215637 530.8,112.55 C532.270589,115.572688 534.411614,118.219897 537.06,120.29 C539.786362,122.44618 542.903417,124.05564 546.24,125.03 C554.545237,127.478605 563.435023,127.041518 571.46,123.79 C575.009421,122.364146 578.13759,120.058455 580.55,117.09 L580.79,117.09 C581.307714,116.849909 581.919805,116.953249 582.33,117.35 C582.573705,117.594108 582.710404,117.925064 582.71,118.27 L582.71,121.16 C582.800418,123.111241 584.359017,124.674169 586.31,124.77 L601.86,124.77 C603.839831,124.697042 605.423384,123.100366 605.48,121.12 L605.48,84.03 C605.533874,76.503778 604.975365,68.9856469 603.81,61.55 C602.879337,56.8769798 600.880597,52.4824898 597.97,48.71 M582.73,94.71 C582.799456,97.0033086 582.268595,99.2749765 581.19,101.3 C580.144606,103.15059 578.682675,104.732351 576.92,105.92 C575.075012,107.149971 573.051169,108.087686 570.92,108.7 C568.648839,109.377123 566.289909,109.714113 563.92,109.7 C561.137245,109.699317 558.404413,108.9609 556,107.56 C553.553885,106.297619 552.074691,103.718812 552.22,100.97 C552.094868,98.5283258 553.093117,96.1634716 554.93,94.55 C556.863344,92.9504709 559.107192,91.7689606 561.52,91.08 C564.155727,90.3135312 566.869598,89.8472419 569.61,89.69 C572.39,89.52 574.74,89.44 576.61,89.44 L580.89,89.44 C581.873496,89.502868 582.641523,90.3145336 582.65,91.3 L582.73,94.71 Z" id="Shape"></path>
                <path d="M304.72,49.2 C301.463403,45.4949401 297.412835,42.5723783 292.87,40.65 C287.938405,38.6236502 282.65147,37.6036626 277.32,37.65 C271.389829,37.6323809 265.501882,38.647544 259.92,40.65 C254.684573,42.5429865 249.873072,45.4482357 245.76,49.2 C241.726535,52.9291653 238.500154,57.4454177 236.28,62.47 C231.659975,75.1832807 231.659975,89.1167193 236.28,101.83 C238.486124,106.853861 241.71472,111.362997 245.76,115.07 C249.855081,118.848195 254.671492,121.759811 259.92,123.63 C265.496658,125.65222 271.388133,126.667992 277.32,126.63 C283.80371,126.625638 290.20991,125.220231 296.1,122.51 C300.70974,120.469604 304.885211,117.563748 308.4,113.95 C309.710752,112.514152 309.710752,110.315848 308.4,108.88 L297.24,100.61 L297.24,100.61 L296.43,100.03 C294.95873,99.1964822 293.112861,99.441509 291.91,100.63 C290.333185,102.371097 288.546165,103.909546 286.59,105.21 C283.493061,107.085649 279.918869,108.023484 276.3,107.91 C271.8412,108.020161 267.495659,106.498154 264.08,103.63 C260.337942,99.797058 258.098439,94.7466411 257.77,89.4 C257.771871,88.4993471 258.42208,87.7309186 259.31,87.58 L311.45,87.58 C313.434209,87.464052 314.987568,85.8275551 315,83.84 L315,79.75 C315.089243,73.877356 314.200433,68.0308088 312.37,62.45 C310.772433,57.5719689 308.219454,53.060912 304.86,49.18 M288.36,70.58 L259.65,70.58 C258.659267,70.5659463 257.847568,69.7891586 257.79,68.8 C258.022153,67.4509524 258.425406,66.1370195 258.99,64.89 C259.808246,63.085201 260.989453,61.4682758 262.46,60.14 C264.021085,58.6922735 265.829896,57.5372091 267.8,56.73 C270.110283,55.8210515 272.577861,55.3791986 275.06,55.43 C279.192194,55.2841479 283.191523,56.9020582 286.06,59.88 C288.439296,62.2733275 289.889137,65.4353279 290.15,68.8 C290.082392,69.7923317 289.264543,70.5666779 288.27,70.58" id="Shape"></path>
                <path d="M209.93,83.33 L209.93,83.33 L209.37,82.56 C208.660077,81.3820259 208.660077,79.9079741 209.37,78.73 L238.24,42.79 C238.709874,42.2516465 238.819037,41.487238 238.518632,40.8388837 C238.218228,40.1905293 237.564491,39.7795976 236.85,39.79 L214.15,39.79 C211.799159,39.7828271 209.579857,40.873984 208.15,42.74 L208.15,42.74 L206.91,44.32 L184.74,72.82 L184.45,73.16 L184.45,73.16 L184.27,73.33 L184.12,73.33 C183.60515,73.5786665 182.989747,73.4787634 182.58,73.08 C182.400592,72.8862351 182.276295,72.6479977 182.22,72.39 L182.22,3.55 C182.114416,1.65762322 180.620302,0.137823238 178.73,2.84217094e-14 L160.94,2.84217094e-14 C159.02844,0.150101869 157.530123,1.70423028 157.45,3.62 L157.45,120.96 C157.535349,122.898593 159.081914,124.453822 161.02,124.55 L178.59,124.55 C180.510307,124.465558 182.053927,122.939234 182.16,121.02 L182.16,87.8 C182.212374,87.540598 182.337198,87.3013526 182.52,87.11 C182.929747,86.7112366 183.54515,86.6113335 184.06,86.86 L184.21,86.86 C184.287742,86.8943149 184.351302,86.9543443 184.39,87.03 L184.39,87.03 L184.39,87.13 L184.83,87.65 L206.38,120.03 L206.38,120.03 L207.62,121.61 L207.62,121.61 C209.031995,123.430578 211.196247,124.509024 213.5,124.54 L237.5,124.54 C237.765188,124.499718 238.012366,124.381351 238.21,124.2 C238.796593,123.651348 238.962467,122.786691 238.62,122.06 L209.93,83.33 Z" id="Path"></path>
                <path d="M529.76,45.7 C530.047184,44.9013584 530.192703,44.0587025 530.19,43.21 C530.199996,43.0601665 530.199996,42.9098335 530.19,42.76 L530.19,42.76 C529.842783,41.0835694 528.40956,39.8515723 526.7,39.759987 L512.6,39.759987 C509.050964,39.7534609 505.977813,42.2228083 505.22,45.69 L505.22,45.69 L504.77,47.38 L492.88,91.03 C492.582138,91.363578 492.166065,91.568028 491.72,91.6 C491.156379,91.5585304 490.653819,91.2297884 490.39,90.73 L490.24,90.03 L490.24,90.03 L478.37,45.94 L478.37,45.94 L478.18,45.15 C477.172969,42.0176829 474.260215,39.8927053 470.97,39.89 L455.65,39.89 C452.12198,39.8761821 449.056063,42.310637 448.27,45.75 L448.27,45.75 L448.27,46.15 L447.95,47.48 L437.12,90.95 C436.929551,91.2902942 436.60923,91.5387973 436.232278,91.6386895 C435.855326,91.7385818 435.453978,91.6813211 435.12,91.48 C434.906287,91.3480715 434.727834,91.1661866 434.6,90.95 L421.76,47.44 L421.14,45.44 C421.16008,45.3107754 421.16008,45.1792246 421.14,45.05 L421.14,45.05 C420.086826,41.9943945 417.212011,39.942676 413.98,39.94 L398.45,39.94 C396.741814,40.0349885 395.310388,41.2654403 394.96,42.94 L394.96,42.94 C394.949985,43.0965066 394.949985,43.2534934 394.96,43.41 C394.962245,44.2582791 395.107619,45.1000977 395.39,45.9 L420.93,119.7 C421.016395,119.98374 421.130268,120.258375 421.27,120.52 C422.405716,122.947806 424.758049,124.578401 427.43,124.79 L442.43,124.79 C445.523277,124.552895 448.158779,122.45242 449.08,119.49 L449.08,119.49 L449.7,117.35 L461.47,75.03 C461.744526,74.6602991 462.170086,74.4328447 462.63,74.41 C463.094175,74.4441881 463.520842,74.6775787 463.8,75.05 L477.3,118.18 C477.550009,118.997335 477.857441,119.795989 478.22,120.57 C479.354635,123.000292 481.706567,124.634426 484.38,124.85 L498.97,124.85 C501.6427,124.646046 503.993937,123.007073 505.11,120.57 L505.11,120.57 C505.28,120.25 505.8,118.82 506.11,117.86 L530.11,46.49 C530.117097,46.3318235 530.161652,46.1775929 530.24,46.04" id="Path"></path>
                <path d="M692.69,42.7 L692.69,42.7 C692.611608,42.4914294 692.548115,42.2775589 692.5,42.06 C691.919254,40.7697676 690.680679,39.8993141 689.27,39.79 L674.27,39.79 C671.40875,39.8878645 668.849,41.5956555 667.66,44.2 L667.66,44.2 C667.56,44.42 667.48,44.65 667.4,44.88 L667.3,45.27 C667.229477,45.4734651 667.169398,45.6804017 667.12,45.89 L666.68,47.32 L666.68,47.32 L653.05,91.9 L653.05,91.9 L652.86,92.44 C652.651987,93.2545436 651.899714,93.8103899 651.06,93.77 C650.294571,93.7931964 649.599169,93.3269153 649.33,92.61 L633.11,47.3 L632.92,46.72 L631.83,43.66 C630.537025,41.3082677 628.09283,39.8196694 625.41,39.75 L608.49,39.75 C607.284058,39.9776417 606.262989,40.7751194 605.75,41.89 C605.662379,42.0823944 605.59534,42.2835118 605.55,42.49 L605.55,42.49 C605.437546,43.1377566 605.482127,43.8030385 605.68,44.43 L637.94,123.03 C638.433977,124.67816 638.334905,126.447298 637.66,128.03 L637.66,128.27 L637.07,129.75 C636.21,131.88 635.38,133.85 634.61,135.52 C633.90203,137.098577 632.93162,138.545739 631.74,139.8 C630.497919,141.001987 628.995795,141.901893 627.35,142.43 C625.161149,143.099775 622.878234,143.410468 620.59,143.35 L609.9,143.35 C607.904284,143.402938 606.302002,145.014024 606.26,147.01 L606.26,160.44 C606.3125,162.439212 607.920788,164.0475 609.92,164.1 L624.24,164.1 C629.076246,164.241933 633.90648,163.658799 638.57,162.37 C641.91925,161.372518 644.997165,159.624946 647.57,157.26 C650.010677,154.876146 651.990494,152.062365 653.41,148.96 C654.95,145.626667 656.54,141.833333 658.18,137.58 L692.71,44.24 C692.809949,43.7517291 692.809949,43.2482709 692.71,42.76" id="Path"></path>
                <path d="M689.29,107.37 C686.851812,107.29807 684.504878,108.299721 682.87,110.11 C679.346424,113.650145 679.359856,119.376423 682.900001,122.899999 C686.440146,126.423576 692.166423,126.410145 695.69,122.87 L695.9,122.67 C699.257484,119.156464 699.257484,113.623536 695.9,110.11 C694.258758,108.30866 691.916137,107.308849 689.48,107.37" id="Path"></path>
                <path d="M843.1,49.29 C839.329169,45.6133536 834.847752,42.7448382 829.93,40.86 C819.185178,36.8696777 807.364822,36.8696777 796.62,40.86 C791.7021,42.7386934 787.222774,45.6080491 783.46,49.29 C779.778044,52.9555835 776.867479,57.3214314 774.9,62.13 C772.76,67.13 771.74,76.99 771.74,83.13 C771.662908,89.6002592 772.732776,96.0330061 774.9,102.13 C778.878771,111.986478 786.786293,119.73817 796.72,123.52 C807.464822,127.510322 819.285178,127.510322 830.03,123.52 C834.966096,121.620197 839.461528,118.731006 843.24,115.03 C846.910915,111.359198 849.820006,106.998961 851.8,102.2 C853.95747,96.1004865 855.027047,89.6694859 854.96,83.2 C854.96,77.08 853.89,67.2 851.8,62.2 C849.820227,57.397971 846.911191,53.0344168 843.24,49.36 M839.03,96.79 C837.818467,100.202179 835.9154,103.32743 833.44,105.97 C830.963515,108.586536 827.988428,110.680997 824.69,112.13 C817.378216,115.090028 809.201784,115.090028 801.89,112.13 C798.598889,110.668059 795.626197,108.575285 793.14,105.97 C790.68797,103.315199 788.796893,100.19288 787.58,96.79 C786.231953,92.3353457 785.557828,87.7041039 785.57947,83.05 C785.558565,77.7386362 786.230918,72.4472193 787.58,67.31 C789.991352,60.4423662 795.171031,54.8999652 801.86,52.03 C809.15996,49.0098639 817.36004,49.0098639 824.66,52.03 C827.963182,53.4615524 830.940314,55.5506487 833.41,58.17 C835.887477,60.8109903 837.790823,63.9367005 839,67.35 C840.300635,72.4944217 840.939131,77.783853 840.9,83.09 C840.94038,87.7381669 840.300263,92.3672204 839,96.83" id="Shape"></path>
                <path d="M720.5,58.36 C722.723679,55.6513115 725.55317,53.5035014 728.76,52.09 C732.387543,50.5805107 736.292164,49.8513754 740.22,49.95 C743.899554,49.8800573 747.55039,50.6102245 750.92,52.09 C753.421859,53.3059998 755.700531,54.9355545 757.66,56.91 C759.049158,58.1369853 761.121939,58.1792869 762.56,57.01 L767.29,52.73 C768.754383,51.3900558 768.920974,49.1410818 767.67,47.6 C764.457555,44.6697332 760.727225,42.3637106 756.67,40.8 C751.429413,38.7803304 745.856175,37.762697 740.24,37.8 C734.624802,37.7322583 729.052579,38.7861869 723.85,40.9 C719.027041,42.8402853 714.656017,45.7543017 711.01,49.46 C707.419471,53.1950954 704.620189,57.6168045 702.78,62.46 C698.899746,75.3305689 698.899746,89.0594311 702.78,101.93 C704.607754,106.765501 707.385753,111.185818 710.95,114.93 C714.517079,118.678998 718.862309,121.600849 723.68,123.49 C734.188719,127.509722 745.811281,127.509722 756.32,123.49 C760.377411,121.900209 764.078926,119.520906 767.21,116.49 C768.435026,115.02012 768.353043,112.862674 767.02,111.49 L763.02,107.57 C761.569459,106.247698 759.350541,106.247698 757.9,107.57 C753.299645,112.293507 746.908072,114.838502 740.32,114.57 C736.589634,114.613371 732.89439,113.845661 729.49,112.32 C726.319118,110.841917 723.504941,108.69632 721.24,106.03 C718.92619,103.289008 717.121119,100.156381 715.91,96.78 C714.609368,92.037285 713.969994,87.137661 714.01,82.22 C713.980931,77.3145456 714.538216,72.4231952 715.67,67.65 C716.679542,64.2683038 718.321958,61.1090281 720.51,58.34" id="Path"></path>
                <path d="M978.8,57.03 C977.920781,53.264268 976.212637,49.7420763 973.8,46.72 C971.345376,43.8369345 968.196184,41.6273373 964.65,40.3 C960.168374,38.6676041 955.417629,37.9006981 950.65,38.04 C945.479032,37.8186626 940.363922,39.1829245 935.99,41.95 C932.781606,44.2198177 929.99039,47.0279499 927.74,50.25 L927.74,50.25 L927.35,50.81 L927.35,50.81 L927.16,51.09 C926.906217,51.3724561 926.53936,51.5265361 926.16,51.51 C925.657119,51.512238 925.194675,51.2347721 924.96,50.79 C924.96,50.64 924.72,50.4 924.61,50.17 C924.23,49.54 923.84,48.9 923.44,48.17 C922.261166,46.313618 920.769013,44.6759717 919.03,43.33 C916.878543,41.700653 914.491069,40.4091237 911.95,39.5 C905.594434,37.505784 898.797368,37.3946414 892.38,39.18 C889.739688,39.9383119 887.21855,41.0625579 884.89,42.52 C882.75028,43.8082865 880.809863,45.4017186 879.13,47.25 C878.58,47.87 878.13,48.49 877.61,49.13 L877.46,49.3 C877.417733,49.4002547 877.352678,49.4892768 877.27,49.56 L877.27,49.56 C876.92306,49.9140256 876.409026,50.0476101 875.933619,49.9072917 C875.458212,49.7669733 875.099098,49.3756756 875,48.89 L875,43.48 C874.937118,41.5051636 873.345154,39.9219706 871.37,39.87 L866.68,39.87 C864.673125,39.9397772 863.079526,41.5819349 863.07,43.59 L863.07,120.83 C863.101241,122.841052 864.709559,124.471402 866.72,124.53 L872.35,124.53 C874.395536,124.460186 876.020447,122.786705 876.03,120.74 L876.03,79.88 C875.992988,75.7805309 876.466632,71.6924078 877.44,67.71 C878.258448,64.309183 879.710452,61.0930627 881.72,58.23 C883.66114,55.5598199 886.248711,53.4264508 889.24,52.03 C892.681144,50.5200196 896.41349,49.7892583 900.17,49.89 C905.503333,49.89 909.333333,51.6933333 911.66,55.3 C913.986667,58.9066667 915.15,65.04 915.15,73.7 L915.15,120.77 C915.170812,122.803647 916.796956,124.456304 918.83,124.51 L924.47,124.51 C926.515536,124.440186 928.140447,122.766705 928.15,120.72 L928.15,72.93 C928.100991,69.7290788 928.63992,66.546347 929.74,63.54 C930.675987,60.867565 932.126661,58.4044771 934.01,56.29 C935.809225,54.3119083 937.993988,52.7226803 940.43,51.62 C942.888932,50.5048963 945.560077,49.9351885 948.26,49.95 C951.470767,49.8294918 954.665389,50.4595136 957.59,51.79 C959.893057,52.8995409 961.890774,54.5540077 963.41,56.61 C964.863903,58.6627391 965.884634,60.9900078 966.41,63.45 C966.948959,66.0183794 967.220408,68.6356812 967.22,71.26 L967.22,120.89 C967.272514,122.900254 968.889746,124.517486 970.9,124.57 L976.52,124.57 C978.568482,124.515788 980.200717,122.839199 980.2,120.79 L980.2,70.6 C980.261905,66.0271973 979.768292,61.4637969 978.73,57.01" id="Path"></path>
            </g>
            <path d="M329.830881,85.2900559 L298.100881,85.2900559 C287.810881,85.2900559 287.810881,85.2900559 285.670881,97.2900559 C283.530881,109.290056 283.520881,109.730056 292.960881,109.730056 L311.820881,109.730056 L301.100881,171.040056 C298.530881,184.760056 292.530881,194.190056 274.100881,199.770056 C269.380881,201.050056 268.100881,202.770056 268.100881,204.910056 C268.100881,207.490056 268.950881,209.630056 271.100881,214.770056 C274.100881,222.060056 275.820881,223.350056 278.390881,223.350056 C280.960881,223.350056 285.680881,222.060056 287.390881,221.640056 C313.550881,213.060056 324.270881,192.910056 328.550881,168.900056 L340.550881,99.9000559 C342.690881,85.2900559 342.690881,85.2900559 329.830881,85.2900559" id="Path"></path>
            <path d="M437.450881,85.2900559 C424.590881,85.2900559 424.590881,85.2900559 422.870881,96.0000559 L413.440881,151.750056 C410.870881,168.040056 406.580881,177.470056 390.720881,177.470056 C375.280881,177.470056 369.720881,168.040056 372.280881,153.470056 L381.270881,100.290056 C383.850881,85.2900559 383.420881,85.2900559 370.130881,85.2900559 C357.260881,85.2900559 356.830881,85.2900559 355.130881,95.5800559 L345.700881,151.290056 C340.120881,183.020056 359.840881,202.740056 387.700881,202.740056 C419.000881,202.740056 434.860881,188.590056 440.010881,155.150056 L449.440881,99.8300559 C451.580881,85.2600559 450.720881,85.2600559 437.440881,85.2600559" id="Path"></path>
            <path d="M496.190881,176.600056 C506.490881,176.180056 512.060881,171.460056 512.060881,166.740056 C512.060881,160.740056 504.770881,158.600056 494.910881,155.590056 C475.610881,149.590056 458.030881,142.730056 458.030881,122.150056 C458.030881,97.7100559 478.190881,84.4200559 503.480881,84.4200559 C514.200881,84.4200559 526.210881,84.8500559 533.930881,85.7000559 C540.790881,86.5600559 542.500881,88.7000559 540.360881,99.4200559 C538.220881,110.140056 535.640881,111.000056 529.640881,110.570056 C522.350881,110.140056 512.920881,109.290056 501.770881,109.290056 C488.910881,109.290056 485.050881,114.000056 485.050881,118.290056 C485.050881,123.860056 490.190881,126.870056 502.200881,130.290056 C524.490881,136.720056 539.070881,145.720056 539.070881,165.020056 C539.070881,187.740056 522.350881,201.020056 495.340881,201.890056 C482.439308,202.344505 469.523099,201.62824 456.750881,199.750056 C448.170881,198.460056 447.750881,198.460056 449.890881,186.030056 C452.030881,174.880056 452.030881,174.030056 460.180881,174.880056 C476.040881,176.590056 485.900881,177.020056 496.180881,176.590056" id="Path"></path>
            <path d="M636.400881,85.2900559 L563.940881,85.2900559 C553.650881,85.2900559 553.650881,85.2900559 551.510881,97.7200559 C549.370881,110.150056 549.790881,110.150056 558.800881,110.150056 L582.380881,110.150056 L569.090881,186.890056 C566.510881,201.890056 566.940881,201.890056 580.230881,201.890056 C592.670881,201.890056 593.100881,201.890056 594.810881,191.170056 L608.530881,110.170056 L631.270881,110.170056 C641.560881,110.170056 641.560881,110.170056 643.700881,97.7400559 C645.840881,85.3100559 645.840881,85.2900559 636.400881,85.2900559" id="Path"></path>
            <path d="M764.180881,109.720056 C774.470881,109.720056 774.470881,109.720056 776.610881,97.2800559 C778.750881,84.8400559 778.760881,84.8500559 769.320881,84.8500559 L717.440881,84.8500559 C699.000881,84.8500559 699.440881,84.8500559 696.440881,103.280056 L683.140881,180.890056 C679.710881,201.040056 680.140881,201.040056 698.580881,201.040056 L749.170881,201.040056 C759.890881,201.040056 759.460881,201.040056 761.610881,189.040056 C763.750881,176.600056 763.750881,176.600056 754.320881,176.600056 L710.580881,176.600056 L714.010881,154.290056 L750.460881,154.290056 C760.320881,154.290056 760.320881,154.290056 762.030881,142.710056 C763.750881,130.710056 763.750881,130.710056 750.460881,130.710056 L718.270881,130.710056 L721.700881,109.710056 L764.180881,109.720056 Z" id="Path"></path>
            <path d="M819.060881,150.880056 L835.780881,114.000056 C837.070881,111.000056 837.070881,111.000056 839.210881,111.000056 C841.350881,111.000056 841.360881,111.000056 841.790881,114.430056 L846.930881,150.880056 L819.060881,150.880056 Z M864.510881,99.4200559 C861.940881,84.8500559 861.940881,84.8500559 841.360881,84.8500559 C822.060881,84.8500559 822.490881,84.8500559 816.490881,96.8500559 L773.180881,187.290056 C766.750881,200.160056 768.040881,201.440056 783.900881,201.440056 C796.340881,201.440056 796.340881,201.440056 801.480881,189.870056 L808.340881,174.430056 L850.340881,174.430056 L852.490881,189.870056 C854.200881,201.440056 854.630881,201.440056 867.060881,201.440056 C881.210881,201.440056 882.500881,200.590056 879.930881,186.440056 L864.510881,99.4200559 Z" id="Shape"></path>
            <path d="M966.990881,85.2900559 L894.100881,85.2900559 C883.810881,85.2900559 883.810881,85.2900559 881.660881,97.7200559 C879.510881,110.150056 879.950881,110.150056 888.950881,110.150056 L912.530881,110.150056 L899.270881,186.890056 C896.700881,201.890056 897.130881,201.890056 910.420881,201.890056 C922.850881,201.890056 923.280881,201.890056 925.000881,191.170056 L938.720881,110.170056 L961.440881,110.170056 C971.730881,110.170056 971.730881,110.170056 973.880881,97.7400559 C976.450881,85.3100559 976.450881,85.3100559 967.020881,85.3100559" id="Path"></path>
            <path d="M225.080881,112.520056 L225.080881,112.520056 C224.370881,110.670056 214.540881,92.5200559 196.300881,69.7500559 L196.300881,69.7500559 C195.836151,69.2000927 195.54396,68.5252705 195.460881,67.8100559 L195.460881,67.8100559 C194.358763,54.5452631 192.522616,41.351714 189.960881,28.2900559 C189.365553,25.6031294 187.126247,23.5929806 184.390881,23.2900559 L184.390881,23.2900559 L165.390881,21.0000559 L165.390881,21.0000559 C165.224546,20.9851985 165.057217,20.9851985 164.890881,21.0000559 C162.681742,21.0000559 160.890881,22.7909169 160.890881,25.0000559 L160.890881,31.5800559 C160.890881,31.7126043 160.78343,31.8200559 160.650881,31.8200559 C160.591822,31.8213454 160.53453,31.7998612 160.490881,31.7600559 L160.490881,31.7600559 C148.645036,20.9920664 135.853354,11.3129602 122.270881,2.84005594 L122.270881,2.84005594 C119.49314,0.980264193 116.223724,-0.00856880381 112.880881,-1.42108547e-14 L112.880881,-1.42108547e-14 C109.538039,-0.00856880381 106.268623,0.980264193 103.490881,2.84005594 L103.490881,2.84005594 C38.0308814,43.2900559 2.01088136,108.920056 0.620881358,112.520056 L0.620881358,112.520056 C-0.206499778,114.271481 -0.206982243,116.301201 0.619566172,118.053019 C1.44611459,119.804837 3.01300995,121.095032 4.89088136,121.570056 L23.7408814,125.200056 C26.2905027,125.899829 28.1563584,128.082603 28.4508814,130.710056 C28.6008814,134.040056 32.1708814,208.370056 36.6408814,227.650056 L36.6408814,227.650056 C37.3977785,230.497171 39.974874,232.479237 42.9208814,232.480056 L43.0608814,232.480056 C54.0608814,232.200056 64.1308814,232.020056 75.0608814,231.870056 L75.9608814,231.870056 C77.1255433,231.859132 78.0654644,230.914756 78.0708814,229.750056 L78.0708814,229.700056 L78.0708814,229.700056 C77.6208814,223.210056 76.6708814,208.370056 75.9008814,192.700056 C75.9008814,192.310056 75.8508814,191.820056 75.8308814,191.420056 L75.8308814,191.420056 C75.7271004,190.119512 74.9955729,188.951308 73.8708814,188.290056 C68.0388651,184.811882 64.3284381,178.651598 63.9808814,171.870056 C62.9808814,145.810056 62.4908814,115.680056 63.9108814,92.1100559 L63.9108814,92.1100559 C63.9523027,90.0168967 65.6827222,88.3536346 67.7758814,88.3950559 C69.8690406,88.4364773 71.5323027,90.1668967 71.4908814,92.2600559 L71.4908814,92.5600559 L71.4908814,92.5600559 C70.5608814,108.270056 70.4908814,126.850056 70.8108814,145.180056 L70.8108814,145.180056 C70.8394625,146.787751 71.7235678,148.258075 73.1301633,149.03717 C74.5367588,149.816266 76.2521492,149.78577 77.6301634,148.95717 C79.0081777,148.128571 79.8394627,146.627751 79.8108814,145.020056 L79.8108814,145.020056 C79.4708814,126.570056 79.5708814,107.870056 80.5208814,92.1100559 C80.5623027,90.0168967 82.2927222,88.3536346 84.3858814,88.3950559 C86.4790406,88.4364773 88.1423027,90.1668967 88.1008814,92.2600559 C88.1008814,92.3600559 88.1008814,92.4600559 88.1008814,92.5600559 C87.1808814,108.190056 87.1008814,126.660056 87.4208814,144.890056 L87.4208814,144.890056 C87.4595414,147.375337 89.5056,149.358716 91.9908814,149.320056 C94.4761627,149.281396 96.4595412,147.235337 96.4208814,144.750056 L96.4208814,144.750056 C96.0808814,126.380056 96.1808814,107.750056 97.1308814,92.1000559 C97.1576763,90.7460194 97.9048057,89.5091329 99.0908333,88.8553197 C100.276861,88.2015064 101.721601,88.2300963 102.880833,88.9303197 C104.040066,89.630543 104.737676,90.8960194 104.710881,92.2500559 C104.710881,92.3500559 104.710881,92.4500559 104.710881,92.5500559 C103.360881,115.470056 103.800881,144.470056 104.710881,169.920056 C104.710881,169.920056 104.710881,170.140056 104.710881,170.160056 C104.710881,170.180056 104.710881,170.420056 104.710881,170.550056 L104.710881,170.550056 L104.710881,170.800056 C104.716592,177.50258 101.416735,183.776798 95.8908814,187.570056 C94.9120439,188.247325 94.2939565,189.332657 94.2108814,190.520056 C94.2108814,190.520056 93.7508814,194.430056 95.4708814,213.360056 C96.2808814,221.630056 96.8908814,227.360056 97.1808814,229.950056 L97.1808814,229.950056 C97.3122172,230.95204 98.1703628,231.698627 99.1808814,231.690056 L100.930881,231.690056 C104.560881,231.690056 108.310881,231.690056 112.200881,231.690056 L113.660881,231.690056 L127.780881,231.690056 L138.470881,231.780056 L138.470881,231.780056 C139.488133,231.787404 140.348835,231.029986 140.470881,230.020056 L140.470881,230.020056 C142.950881,207.330056 143.530881,194.580056 143.530881,194.580056 C143.502814,193.455638 142.648724,192.52468 141.530881,192.400056 L128.530881,190.610056 L128.530881,190.610056 C126.764769,190.39334 125.299711,189.140952 124.810881,187.430056 C124.648067,186.776701 124.59401,186.100985 124.650881,185.430056 C129.840881,109.760056 154.770881,84.2900559 154.770881,84.2900559 C155.140457,83.9178623 155.545741,83.5829169 155.980881,83.2900559 C156.983174,82.5643166 158.264931,82.3433337 159.45238,82.6915477 C160.639829,83.0397617 161.599255,83.9179615 162.050881,85.0700559 C162.228559,85.6620726 162.335964,86.2729386 162.370881,86.8900559 C164.520881,110.660056 163.470881,151.120056 162.140881,182.680056 C161.010881,209.470056 159.640881,230.500056 159.640881,230.500056 L159.640881,230.500056 L159.640881,230.500056 C159.640881,231.36162 160.339317,232.060056 161.200881,232.060056 L161.200881,232.060056 C168.280881,232.180056 175.200881,232.320056 182.640881,232.510056 L182.780881,232.510056 C185.726889,232.510056 188.303984,230.527171 189.060881,227.680056 L189.060881,227.680056 C193.530881,208.400056 197.060881,134.070056 197.250881,130.740056 C197.540057,128.110286 199.408139,125.924907 201.960881,125.230056 L220.810881,121.600056 C222.688753,121.125032 224.255648,119.834837 225.082197,118.083019 C225.908745,116.331201 225.908262,114.301481 225.080881,112.550056 L225.080881,112.520056 Z" id="Path"></path>
        </g>
    </g>
</svg>